<svg xmlns="http://www.w3.org/2000/svg" width="14.225" height="15.593" viewBox="0 0 14.225 15.593">
  <path id="event_upcoming_FILL0_wght400_GRAD0_opsz48" d="M11.791,18.4v-1.08h3.853V9.582H4.841v3.961H3.76V6.161a1.108,1.108,0,0,1,1.08-1.08h1.17V4h1.17V5.08H13.3V4h1.17V5.08h1.17a1.108,1.108,0,0,1,1.08,1.08V17.324a1.108,1.108,0,0,1-1.08,1.08ZM7.362,19.593l-.756-.756L8.64,16.784H2.5V15.7H8.64L6.605,13.651l.756-.756,3.349,3.349ZM4.841,8.5h10.8V6.161H4.841Zm0,0v0Z" transform="translate(-2.5 -4)" fill="#2a5369"/>
</svg>
