<svg xmlns="http://www.w3.org/2000/svg" width="12.964" height="12.964" viewBox="0 0 12.964 12.964">
  <path id="history_FILL0_wght400_GRAD0_opsz48" d="M14.733,15.417,11.96,12.68V8.827h1.08v3.4l2.467,2.413Zm-2.3,3.547a6.156,6.156,0,0,1-4.555-1.9A6.312,6.312,0,0,1,6,12.464H7.08A5.286,5.286,0,0,0,8.629,16.3a5.106,5.106,0,0,0,3.8,1.584,5.236,5.236,0,0,0,3.871-1.6,5.326,5.326,0,0,0,1.584-3.889,5.028,5.028,0,0,0-1.6-3.772A5.363,5.363,0,0,0,12.428,7.08a4.9,4.9,0,0,0-2.3.558A6.261,6.261,0,0,0,8.269,9.115h1.891V10.2H6.4V6.45h1.08V8.359A6.852,6.852,0,0,1,9.7,6.63,6.125,6.125,0,0,1,12.428,6a6.433,6.433,0,0,1,2.539.5,6.653,6.653,0,0,1,2.08,1.377,6.466,6.466,0,0,1,1.4,2.044,6.208,6.208,0,0,1,.513,2.521,6.335,6.335,0,0,1-.513,2.539,6.517,6.517,0,0,1-1.4,2.071,6.7,6.7,0,0,1-2.08,1.4A6.335,6.335,0,0,1,12.428,18.964Z" transform="translate(-6 -6)" fill="#2a5369"/>
</svg>
