<svg xmlns="http://www.w3.org/2000/svg" width="12.964" height="14.404" viewBox="0 0 12.964 14.404">
  <path id="event_available_FILL0_wght400_GRAD0_opsz48" d="M11.636,15.74,9.151,13.273l.756-.756,1.729,1.693L14.949,10.9l.756.774ZM7.08,18.4A1.108,1.108,0,0,1,6,17.324V6.161A1.108,1.108,0,0,1,7.08,5.08h1.17V4h1.17V5.08h6.122V4h1.17V5.08h1.17a1.108,1.108,0,0,1,1.08,1.08V17.324a1.108,1.108,0,0,1-1.08,1.08Zm0-1.08h10.8V9.582H7.08Zm0-8.823h10.8V6.161H7.08Zm0,0v0Z" transform="translate(-6 -4)" fill="#2a5369"/>
</svg>
