<svg xmlns="http://www.w3.org/2000/svg" width="15.917" height="11.182" viewBox="0 0 15.917 11.182">
  <path id="group_FILL0_wght400_GRAD0_opsz48" d="M1.9,20.131V18.439A2.1,2.1,0,0,1,2.224,17.3a1.972,1.972,0,0,1,.9-.765A14.275,14.275,0,0,1,5.492,15.7a9.29,9.29,0,0,1,2.17-.252,9.176,9.176,0,0,1,2.161.252,14.4,14.4,0,0,1,2.359.828,2.027,2.027,0,0,1,.909.765,2.055,2.055,0,0,1,.333,1.143v1.693Zm12.6,0V18.439a2.914,2.914,0,0,0-.576-1.864A4.217,4.217,0,0,0,12.415,15.4a17.856,17.856,0,0,1,2.341.423,8.251,8.251,0,0,1,1.783.639,2.787,2.787,0,0,1,.936.846,1.974,1.974,0,0,1,.342,1.134v1.693Zm-6.842-5.78a2.59,2.59,0,0,1-2.7-2.7,2.59,2.59,0,0,1,2.7-2.7,2.59,2.59,0,0,1,2.7,2.7,2.59,2.59,0,0,1-2.7,2.7Zm3.781,0A4.027,4.027,0,0,1,11,14.325a1.9,1.9,0,0,1-.441-.1,2.955,2.955,0,0,0,.657-1.107,4.51,4.51,0,0,0,.225-1.467,4.191,4.191,0,0,0-.225-1.431,3.828,3.828,0,0,0-.657-1.143A3.8,3.8,0,0,1,11,8.986a3.035,3.035,0,0,1,.441-.036,2.59,2.59,0,0,1,2.7,2.7,2.59,2.59,0,0,1-2.7,2.7Zm-8.463,4.7h9.363v-.612a1.03,1.03,0,0,0-.171-.558.941.941,0,0,0-.423-.378,12.158,12.158,0,0,0-2.179-.774,8.707,8.707,0,0,0-1.909-.2,8.83,8.83,0,0,0-1.918.2,12.051,12.051,0,0,0-2.188.774.893.893,0,0,0-.414.378,1.071,1.071,0,0,0-.162.558Zm4.681-5.78a1.621,1.621,0,1,0,0-3.241,1.621,1.621,0,1,0,0,3.241ZM7.662,19.051ZM7.662,11.651Z" transform="translate(-1.9 -8.95)" fill="#2a5369"/>
</svg>
