<svg xmlns="http://www.w3.org/2000/svg" width="16.741" height="13.351" viewBox="0 0 16.741 13.351">
  <path id="how_to_reg_FILL0_wght400_GRAD0_opsz48" d="M4,21.916V19.949a2.506,2.506,0,0,1,.356-1.308,2.261,2.261,0,0,1,1.067-.91,15.643,15.643,0,0,1,2.762-.963,11.018,11.018,0,0,1,2.511-.293,12.045,12.045,0,0,1,1.287.073,9.352,9.352,0,0,1,1.392.262l-1.025,1.025q-.419-.042-.827-.073t-.827-.031a10.247,10.247,0,0,0-2.208.22,14.522,14.522,0,0,0-2.563.91,1.047,1.047,0,0,0-.513.481,1.354,1.354,0,0,0-.157.607v.711h6.675l1.256,1.256Zm11.4.335L12.454,19.3l.879-.879L15.4,20.493l4.457-4.457.879.879ZM10.7,15.178a3.011,3.011,0,0,1-3.139-3.139A3.01,3.01,0,0,1,10.7,8.9a3.011,3.011,0,0,1,3.139,3.139A3.011,3.011,0,0,1,10.7,15.178ZM11.931,20.66ZM10.7,13.922a1.884,1.884,0,1,0,0-3.767,1.884,1.884,0,1,0,0,3.767ZM10.7,12.039Z" transform="translate(-4 -8.9)" fill="#2a5369"/>
</svg>
