<svg xmlns="http://www.w3.org/2000/svg" width="13" height="13" viewBox="0 0 13 13">
  <path id="block_FILL0_wght400_GRAD0_opsz48" d="M10.5,17a6.329,6.329,0,0,1-2.535-.512,6.49,6.49,0,0,1-3.453-3.453,6.533,6.533,0,0,1,0-5.07A6.49,6.49,0,0,1,7.965,4.512a6.533,6.533,0,0,1,5.07,0,6.49,6.49,0,0,1,3.453,3.453,6.533,6.533,0,0,1,0,5.07,6.49,6.49,0,0,1-3.453,3.453A6.329,6.329,0,0,1,10.5,17Zm0-.975A5.493,5.493,0,0,0,16.025,10.5a5.37,5.37,0,0,0-.341-1.9,5.76,5.76,0,0,0-.959-1.658L6.941,14.725a5.209,5.209,0,0,0,1.649.967A5.555,5.555,0,0,0,10.5,16.025ZM6.291,14.059l7.767-7.767A5.569,5.569,0,0,0,12.4,5.316a5.37,5.37,0,0,0-1.9-.341A5.493,5.493,0,0,0,4.975,10.5a5.217,5.217,0,0,0,.358,1.909A6.011,6.011,0,0,0,6.291,14.059Z" transform="translate(-4 -4)" fill="#2a5369"/>
</svg>
