<svg xmlns="http://www.w3.org/2000/svg" width="14.404" height="14.404" viewBox="0 0 14.404 14.404">
  <path id="library_add_FILL0_wght400_GRAD0_opsz48" d="M11.742,13.039h1.08V10.662H15.2V9.582H12.823V7.2h-1.08V9.582H9.366v1.08h2.377Zm-4.5,3.2a1.108,1.108,0,0,1-1.08-1.08V5.08A1.108,1.108,0,0,1,7.241,4H17.324A1.108,1.108,0,0,1,18.4,5.08V15.163a1.108,1.108,0,0,1-1.08,1.08Zm0-1.08H17.324V5.08H7.241ZM5.08,18.4A1.108,1.108,0,0,1,4,17.324V6.161H5.08V17.324H16.244V18.4ZM7.241,5.08v0Z" transform="translate(-4 -4)" fill="#2a5369"/>
</svg>
