<svg xmlns="http://www.w3.org/2000/svg" width="8.362" height="10.19" viewBox="0 0 8.362 10.19">
  <path id="pin_drop_FILL0_wght400_GRAD0_opsz48" d="M14.681,13.013a12.226,12.226,0,0,0,2.431-2.5,4.033,4.033,0,0,0,.821-2.238,3.206,3.206,0,0,0-1.154-2.586,3.1,3.1,0,0,0-1.061-.581,3.111,3.111,0,0,0-2.075,0,3.1,3.1,0,0,0-1.061.581,3.206,3.206,0,0,0-1.154,2.586,4.033,4.033,0,0,0,.821,2.238A12.226,12.226,0,0,0,14.681,13.013Zm0,1.177a14.528,14.528,0,0,1-3.151-3.051A4.96,4.96,0,0,1,10.5,8.274a4.262,4.262,0,0,1,.379-1.851,4.2,4.2,0,0,1,.983-1.34,4.11,4.11,0,0,1,1.347-.813,4.129,4.129,0,0,1,2.942,0,4.11,4.11,0,0,1,1.347.813,4.2,4.2,0,0,1,.983,1.34,4.262,4.262,0,0,1,.379,1.851,4.96,4.96,0,0,1-1.03,2.865,14.528,14.528,0,0,1-3.151,3.051Zm0-4.924a1.084,1.084,0,1,0-.767-.317A1.044,1.044,0,0,0,14.681,9.265ZM14.681,8.274Z" transform="translate(-10.5 -4)" fill="#2a5369"/>
</svg>
