<svg xmlns="http://www.w3.org/2000/svg" width="15.125" height="15.845" viewBox="0 0 15.125 15.845">
  <path id="event_repeat_FILL0_wght400_GRAD0_opsz48" d="M7.08,18.4A1.108,1.108,0,0,1,6,17.324V6.161A1.108,1.108,0,0,1,7.08,5.08h1.17V4h1.17V5.08h6.122V4h1.17V5.08h1.17a1.108,1.108,0,0,1,1.08,1.08v5.4h-1.08V9.582H7.08v7.742h5.834V18.4Zm10.443,1.44a3.473,3.473,0,0,1-2.3-.819,3.529,3.529,0,0,1-1.233-2.062h1.116A2.482,2.482,0,0,0,16,18.26a2.524,2.524,0,0,0,3.3-3.8,2.429,2.429,0,0,0-1.783-.738,2.485,2.485,0,0,0-.972.189,2.452,2.452,0,0,0-.792.531H16.8v1.08H13.922V12.643H15v1.026a3.765,3.765,0,0,1,1.134-.747,3.6,3.6,0,0,1,4.988,3.322,3.6,3.6,0,0,1-3.6,3.6ZM7.08,8.5h10.8V6.161H7.08Zm0,0v0Z" transform="translate(-6 -4)" fill="#2a5369"/>
</svg>
