<svg xmlns="http://www.w3.org/2000/svg" width="18" height="18" viewBox="0 0 18 18">
  <path id="update_FILL0_wght400_GRAD0_opsz48" d="M15.075,24a8.8,8.8,0,0,1-3.525-.713A9.306,9.306,0,0,1,8.662,21.35a9.049,9.049,0,0,1-1.95-2.875A8.8,8.8,0,0,1,6,14.95a8.619,8.619,0,0,1,.713-3.5,8.978,8.978,0,0,1,1.95-2.837A9.237,9.237,0,0,1,11.55,6.7,8.931,8.931,0,0,1,15.075,6a8.5,8.5,0,0,1,3.787.875,9.514,9.514,0,0,1,3.087,2.4V6.625h1.5v5.2H18.225v-1.5H20.85a8.693,8.693,0,0,0-2.587-2.05A6.8,6.8,0,0,0,15.075,7.5a7.447,7.447,0,0,0-5.35,2.137A6.982,6.982,0,0,0,7.5,14.875a7.4,7.4,0,0,0,2.2,5.4A7.27,7.27,0,0,0,15.075,22.5a7.09,7.09,0,0,0,5.275-2.2,7.339,7.339,0,0,0,2.15-5.325H24a8.763,8.763,0,0,1-2.6,6.387A8.548,8.548,0,0,1,15.075,24Z" transform="translate(-6 -6)" fill="#2A5369"/>
</svg>
